<svg width="698" height="622" viewBox="0 0 698 622" fill="none" xmlns="http://www.w3.org/2000/svg">
<g clip-path="url(#clip0_6_1811)">
<path d="M178.592 143.237C177.77 149.464 176.958 155.774 177.898 161.984C178.199 163.974 178.692 165.989 179.814 167.722C180.928 169.455 182.753 170.898 184.934 171.271C186.941 169.53 189.733 167.465 190.947 165.201C192.498 162.283 192.498 158.891 192.124 155.674C191.732 152.341 190.92 148.933 188.793 146.197C186.667 143.452 182.233 142.681 178.592 143.237Z" fill="black"/>
<mask id="mask0_6_1811" style="mask-type:luminance" maskUnits="userSpaceOnUse" x="114" y="361" width="174" height="180">
<path d="M114.224 361.656H287.088V540.358H114.224V361.656Z" fill="white"/>
</mask>
<g mask="url(#mask0_6_1811)">
<path d="M285.09 511.81C284.907 487.3 282.224 460.037 281.668 444.805C278.921 370.702 274.523 362.9 274.523 362.9L192.845 369.981L127.318 377.244L114.434 539.894L201.158 540.126L206.897 494.373L207.783 540.143L285.008 540.35L285.09 511.81Z" fill="#007785"/>
</g>
<path d="M206.897 494.911C206.669 494.911 206.45 494.787 206.35 494.588C206.222 494.314 206.359 493.991 206.66 493.875L241.454 480.277C241.755 480.152 242.102 480.277 242.229 480.559C242.357 480.832 242.22 481.147 241.919 481.263L207.135 494.87C207.053 494.895 206.97 494.911 206.897 494.911Z" fill="black"/>
<mask id="mask1_6_1811" style="mask-type:luminance" maskUnits="userSpaceOnUse" x="364" y="493" width="343" height="18">
<path d="M364.176 493.261H706.993V510.243H364.176V493.261Z" fill="white"/>
</mask>
<g mask="url(#mask1_6_1811)">
<path d="M365.873 493.311H706.245V510.027H365.873V493.311Z" fill="white"/>
<path d="M365.873 493.311H706.245V510.027H365.873V493.311Z" fill="black" fill-opacity="0.2667"/>
</g>
<path d="M544.678 259.362L524.073 364.707L621.537 373.206L618.033 277.015L544.678 259.362Z" fill="black"/>
<path d="M579.234 296.442L584.079 361.797L548.902 362.452L549.66 319.361L579.234 296.442Z" fill="#F8B498"/>
<path d="M537.606 355.413L533.463 355.869C523.426 356.971 511.344 365.562 507.749 374.143L480.684 431.837L491.999 389.002L458.282 382.833L444.741 441.58C442.003 450.369 441.52 459.606 443.335 468.586C445.297 478.254 454.477 485.335 465.308 485.517C477.563 485.716 489.024 480.02 495.43 470.526L517.148 438.379L541.539 492.159L667.044 500.5C680.996 501.429 693.607 492.971 696.737 480.584C699.456 469.804 697.777 458.495 692.001 448.76L653.904 379.442C652.17 376.299 649.88 373.273 647.161 370.479C637.187 360.197 622.541 354.65 607.449 354.6L588.067 354.525L537.606 355.413Z" fill="#FF3E4D"/>
<path d="M530.534 267.96C530.534 267.96 505.787 250.373 531.109 235.963C548.401 226.112 577.902 239.163 577.902 239.163L530.534 267.96Z" fill="black"/>
<path d="M579.289 239.429C580.813 239.719 582.327 240.059 583.824 240.457C585.32 240.863 586.789 241.311 588.24 241.825C589.691 242.331 591.106 242.886 592.493 243.5C593.88 244.113 595.23 244.777 596.535 245.49C597.849 246.195 599.117 246.957 600.34 247.753C601.563 248.558 602.74 249.403 603.862 250.291C604.985 251.178 606.061 252.098 607.074 253.06C608.087 254.022 609.036 255.017 609.93 256.045C610.825 257.073 611.655 258.126 612.422 259.212C613.188 260.29 613.882 261.401 614.511 262.529C615.141 263.657 615.707 264.801 616.19 265.97C616.674 267.131 617.094 268.308 617.431 269.494C617.778 270.68 618.043 271.874 618.234 273.076C618.417 274.278 618.535 275.472 618.572 276.675C618.608 277.877 618.572 279.071 618.462 280.257C618.353 281.451 618.161 282.628 617.897 283.789C617.632 284.958 617.294 286.111 616.875 287.238C616.464 288.374 615.98 289.485 615.424 290.572C614.867 291.666 614.237 292.719 613.535 293.756C612.841 294.792 612.075 295.787 611.254 296.757C610.423 297.727 609.529 298.656 608.571 299.551C607.622 300.447 606.609 301.301 605.541 302.114C604.465 302.918 603.342 303.689 602.174 304.41C600.997 305.123 599.774 305.795 598.506 306.417C597.238 307.047 595.933 307.611 594.582 308.133C593.232 308.656 591.845 309.12 590.43 309.526C589.007 309.933 587.565 310.289 586.087 310.588C584.618 310.886 583.121 311.127 581.606 311.309C580.092 311.491 578.568 311.616 577.026 311.674C575.493 311.74 573.941 311.748 572.39 311.699C570.839 311.641 569.288 311.533 567.746 311.359C566.194 311.185 564.661 310.961 563.128 310.671C561.595 310.389 560.09 310.049 558.593 309.642C557.097 309.244 555.628 308.797 554.177 308.283C552.726 307.777 551.311 307.213 549.924 306.599C548.537 305.994 547.187 305.331 545.873 304.618C544.568 303.905 543.3 303.15 542.077 302.346C540.854 301.55 539.677 300.704 538.555 299.817C537.423 298.93 536.356 298.009 535.343 297.047C534.33 296.085 533.372 295.09 532.487 294.062C531.592 293.034 530.762 291.981 529.995 290.895C529.229 289.809 528.526 288.706 527.897 287.578C527.267 286.451 526.71 285.298 526.227 284.137C525.734 282.976 525.323 281.799 524.986 280.613C524.639 279.419 524.374 278.225 524.183 277.031C523.991 275.829 523.882 274.627 523.845 273.433C523.8 272.23 523.836 271.036 523.955 269.851C524.064 268.657 524.256 267.479 524.52 266.31C524.785 265.149 525.123 263.997 525.533 262.861C525.953 261.733 526.437 260.622 526.993 259.528C527.55 258.441 528.18 257.38 528.873 256.352C529.576 255.315 530.333 254.312 531.163 253.35C531.994 252.38 532.888 251.443 533.846 250.556C534.795 249.66 535.808 248.806 536.876 247.994C537.943 247.181 539.066 246.418 540.243 245.697C541.42 244.976 542.643 244.304 543.911 243.682C545.179 243.06 546.484 242.488 547.835 241.974C549.185 241.452 550.572 240.987 551.987 240.581C553.41 240.166 554.852 239.818 556.321 239.52C557.799 239.221 559.296 238.981 560.801 238.798C562.316 238.616 563.849 238.492 565.382 238.425C566.924 238.367 568.476 238.359 570.027 238.409C571.578 238.467 573.12 238.574 574.671 238.749C576.223 238.914 577.756 239.147 579.289 239.429Z" fill="black"/>
<path d="M549.66 319.36L575.584 316.5L549.258 342.088L549.66 319.36Z" fill="black"/>
<path d="M587.374 299.593C575.566 327.735 549.742 325.313 549.742 325.313C527.806 325.015 517.084 312.204 515.04 296.583C513.461 284.577 522.267 266.774 527.003 256.625C528.599 253.201 531.3 250.249 534.914 248.466C565.811 233.193 606.18 254.76 587.374 299.593Z" fill="#F8B498"/>
<path d="M530.552 294.701L527.605 293.615C526.628 293.167 526.218 292.105 526.71 291.11L529.749 286.666C529.959 286.351 530.424 286.252 530.771 286.442C531.127 286.641 531.227 287.064 531.017 287.379L528.024 291.749C527.906 291.989 528.015 292.28 528.225 292.379L531.118 293.449C531.501 293.59 531.684 293.979 531.528 294.328C531.41 294.593 531.136 294.751 530.835 294.751C530.744 294.751 530.643 294.734 530.552 294.701Z" fill="black"/>
<path d="M550.682 284.651C550.682 285.016 550.6 285.364 550.445 285.704C550.289 286.036 550.07 286.334 549.788 286.6C549.505 286.857 549.176 287.056 548.802 287.197C548.437 287.338 548.045 287.404 547.643 287.404C547.242 287.404 546.858 287.338 546.484 287.197C546.11 287.056 545.782 286.857 545.499 286.6C545.216 286.334 544.997 286.036 544.842 285.704C544.687 285.364 544.614 285.016 544.614 284.651C544.614 284.278 544.687 283.93 544.842 283.59C544.997 283.258 545.216 282.96 545.499 282.694C545.782 282.437 546.11 282.238 546.484 282.097C546.858 281.956 547.242 281.89 547.643 281.89C548.045 281.89 548.437 281.956 548.802 282.097C549.176 282.238 549.505 282.437 549.788 282.694C550.07 282.96 550.289 283.258 550.445 283.59C550.6 283.93 550.682 284.278 550.682 284.651Z" fill="black"/>
<path d="M524.53 277.562C522.988 277.321 521.546 278.267 521.281 279.66C521.026 281.053 522.057 282.363 523.59 282.603C525.123 282.835 526.574 281.898 526.838 280.505C527.094 279.112 526.054 277.794 524.53 277.562Z" fill="black"/>
<path d="M526.254 300.588C525.908 300.381 525.816 299.966 526.044 299.651C526.263 299.344 526.729 299.253 527.076 299.46C527.158 299.502 535.224 304.203 543.291 299.941C543.647 299.751 544.103 299.867 544.304 300.19C544.513 300.513 544.395 300.928 544.039 301.11C541.219 302.603 538.436 303.117 535.936 303.117C530.561 303.109 526.501 300.737 526.254 300.588Z" fill="black"/>
<path d="M525.451 262.952C521.473 262.985 518.972 264.776 517.731 265.995C517.12 266.6 516.974 267.471 517.339 268.217C517.786 269.146 518.909 269.643 519.985 269.403C521.902 268.972 523.973 269.03 527.24 269.038C531.538 269.055 530.99 265.829 530.99 265.829C530.99 265.829 530.561 262.902 525.451 262.952Z" fill="black"/>
<path d="M553.501 267.239C558.383 268.549 562.882 272.595 563.959 274.137C564.497 274.909 564.36 275.779 563.639 276.376C562.754 277.106 561.194 277.222 559.944 276.65C557.754 275.63 553.109 273.482 549.085 272.446C543.783 271.086 545.636 268.201 545.636 268.201C545.636 268.201 547.223 265.564 553.501 267.239Z" fill="black"/>
<path d="M601.764 271.642C536.967 265.083 546.347 241.667 546.347 241.667C611.765 238.45 601.764 271.642 601.764 271.642Z" fill="black"/>
<path d="M614.52 280.597L579.855 299.369L582.756 263.665L614.52 280.597Z" fill="black"/>
<path d="M596.918 290.696C589.992 287.288 581.333 289.618 577.573 295.903C573.823 302.188 576.387 310.057 583.304 313.473C590.23 316.881 598.889 314.551 602.64 308.266C606.399 301.981 603.835 294.112 596.918 290.696Z" fill="#F8B498"/>
<path d="M584.38 304.062C588.441 294.916 597.256 299.56 597.256 299.56L584.38 304.062Z" fill="#F8B498"/>
<path d="M554.542 371.789C527.203 371.789 537.615 355.413 537.615 355.413L547.296 354.011L594.263 354.426C593.624 357.021 581.871 371.789 554.542 371.789Z" fill="#F8B498"/>
<path d="M574.334 466.396L539.111 470.808L539.75 486.802L575.1 493.402C575.1 493.402 574.489 471.902 574.334 466.396Z" fill="#F8B498"/>
<path d="M516.445 438.611C516.39 438.478 511.289 425.328 514.118 410.643C516.929 396.091 519.31 389.532 519.328 389.466C519.465 389.11 519.885 388.919 520.277 389.035C520.67 389.159 520.88 389.541 520.752 389.897C520.725 389.964 518.379 396.439 515.587 410.883C512.822 425.195 517.795 438.022 517.85 438.146C517.987 438.503 517.786 438.893 517.403 439.017C517.312 439.042 517.23 439.059 517.148 439.059C516.837 439.059 516.554 438.884 516.445 438.611Z" fill="black"/>
<path d="M530.078 435.062L532.897 430.013L538.993 432.699L536.292 437.765L530.078 435.062Z" fill="black"/>
<path d="M500.531 497.125L499.6 500.284C499.408 500.956 499.956 501.163 500.403 500.574L502.474 497.838C502.155 497.059 501.398 496.744 500.531 497.125Z" fill="black"/>
<path d="M530.315 434.581L533.436 435.949L536.538 437.284L510.313 488.037L510.176 488.303L510.121 488.286L502.283 498.195C501.936 497.473 501.188 497.167 500.339 497.473L503.478 485.807L503.396 485.774L503.579 485.409L530.315 434.581Z" fill="#007785"/>
<path d="M532.642 430.502L533.353 429.217C534.348 427.442 536.492 426.605 538.144 427.359C539.75 428.089 540.316 430.046 539.44 431.795L538.737 433.172L532.642 430.502Z" fill="#F8B498"/>
<path d="M484.927 495.492C486.369 495.99 487.966 495.724 489.097 494.804L499.062 486.695C503.67 482.947 510.97 480.335 516.865 483.063C518.69 483.9 520.168 485.293 521.819 486.38C525.999 489.132 531.054 488.85 535.881 487.847C539.285 487.134 542.542 485.865 545.462 484.141C546.357 483.618 547.214 483.055 548.026 482.433C548.154 482.341 548.884 481.91 548.893 481.736L549.432 470.285L512.539 469.78C505.668 469.688 499.162 472.342 494.691 477.068L483.129 489.257C481.204 491.296 482.144 494.53 484.927 495.492Z" fill="#F8B498"/>
<path d="M574.662 466.338C574.58 465.974 574.854 465.617 575.255 465.551L640.837 454.689L620.862 416.257C620.689 415.917 620.844 415.519 621.218 415.353C621.592 415.195 622.039 415.345 622.213 415.676L642.598 454.904C642.698 455.095 642.698 455.319 642.589 455.501C642.479 455.692 642.288 455.825 642.06 455.858L575.529 466.886C575.484 466.894 575.438 466.902 575.392 466.902C575.036 466.894 574.726 466.67 574.662 466.338Z" fill="black"/>
<path d="M358.509 380.71H522.641L561.303 490.16H397.345L358.509 380.71Z" fill="#007785"/>
<path d="M397.345 487.507H614.52V501.478H397.345V487.507Z" fill="#007785"/>
<path d="M462.68 448.221C462.68 448.859 462.616 449.498 462.48 450.12C462.343 450.75 462.133 451.363 461.868 451.952C461.594 452.549 461.266 453.105 460.874 453.643C460.481 454.174 460.034 454.663 459.541 455.119C459.039 455.567 458.501 455.973 457.908 456.33C457.324 456.687 456.703 456.985 456.056 457.234C455.408 457.474 454.732 457.665 454.039 457.789C453.345 457.914 452.652 457.972 451.949 457.972C451.238 457.972 450.544 457.914 449.851 457.789C449.157 457.665 448.491 457.474 447.834 457.234C447.186 456.985 446.566 456.687 445.982 456.33C445.398 455.973 444.85 455.567 444.357 455.119C443.855 454.663 443.408 454.174 443.016 453.643C442.633 453.105 442.295 452.549 442.03 451.952C441.757 451.363 441.556 450.75 441.419 450.12C441.282 449.498 441.209 448.859 441.209 448.221C441.209 447.582 441.282 446.944 441.419 446.322C441.556 445.692 441.757 445.078 442.03 444.489C442.295 443.892 442.633 443.337 443.016 442.798C443.408 442.267 443.855 441.778 444.357 441.322C444.85 440.874 445.398 440.468 445.982 440.111C446.566 439.755 447.186 439.456 447.834 439.208C448.491 438.967 449.157 438.777 449.851 438.652C450.544 438.528 451.238 438.47 451.949 438.47C452.652 438.47 453.345 438.528 454.039 438.652C454.732 438.777 455.408 438.967 456.056 439.208C456.703 439.456 457.324 439.755 457.908 440.111C458.501 440.468 459.039 440.874 459.541 441.322C460.034 441.778 460.481 442.267 460.874 442.798C461.266 443.337 461.594 443.892 461.868 444.489C462.133 445.078 462.343 445.692 462.48 446.322C462.616 446.944 462.68 447.582 462.68 448.221Z" fill="white"/>
<path d="M136.535 268.599L54.8111 367.701C36.6615 390.577 -3.47026 365.984 13.3106 342.121L61.3172 276.923L136.535 268.599Z" fill="#F8B498"/>
<path d="M109.598 332.361L36.4334 288.615C54.6742 262.977 100.856 191.942 131.16 201.005C213.55 230.391 123.166 312.122 109.598 332.361Z" fill="#FF3E4D"/>
<path d="M270.298 280.928L306.287 273.391C304.179 203.327 251.738 200.209 251.738 200.209L270.298 280.928Z" fill="#FF3E4D"/>
<path d="M104.332 245.622L125.156 382.833H254.539C266.228 336.491 308.404 214.313 258.6 201.478C214.599 190.135 182.169 190.126 123.559 199.919C105.227 200.939 109.716 234.595 104.332 245.622Z" fill="#FF3E4D"/>
<path d="M120.675 324.882L106.723 271.302C106.65 270.995 106.86 270.68 107.189 270.605C107.535 270.539 107.873 270.73 107.955 271.036L121.907 324.617C121.98 324.924 121.77 325.231 121.442 325.305C121.387 325.314 121.341 325.322 121.296 325.322C121.013 325.322 120.748 325.139 120.675 324.882Z" fill="black"/>
<path d="M271.621 306.981C271.284 306.939 271.037 306.649 271.092 306.334L279.487 252.753C279.542 252.446 279.834 252.223 280.208 252.272C280.545 252.314 280.792 252.604 280.737 252.919L272.333 306.5C272.287 306.782 272.023 306.989 271.712 306.989C271.685 306.989 271.658 306.989 271.621 306.981Z" fill="black"/>
<path d="M184.377 330.131L231.051 331.582L251.738 291.6C198.366 272.239 178.008 304.999 178.008 304.999L184.377 330.131Z" fill="#F8B498"/>
<path d="M186.676 329.385L42.9942 375.918L34.6084 327.337L181.265 304.485L186.676 329.385Z" fill="#F8B498"/>
<path d="M50.6045 324.841C50.5406 324.534 50.7779 324.236 51.1155 324.186L86.1646 318.722C86.5296 318.672 86.8307 318.879 86.8855 319.194C86.9494 319.501 86.7121 319.8 86.3745 319.849L51.3254 325.314C51.2889 325.322 51.2524 325.322 51.225 325.322C50.9147 325.322 50.6501 325.123 50.6045 324.841Z" fill="black"/>
<path d="M386.806 270.53C343.471 257.181 237.512 273.391 237.512 273.391L178.464 399.35L188.182 409.167L386.806 270.53Z" fill="white"/>
<path d="M323.98 380.395C315.084 396.091 290.629 396.191 290.629 396.191L358.363 274.054L386.806 270.531L323.98 380.395Z" fill="black"/>
<path d="M295.191 395.619L188.182 409.167L245.797 282.902L363.775 273.383L295.191 395.619Z" fill="#007785"/>
<path d="M295.191 395.619L188.182 409.167L245.797 282.902L363.775 273.383L295.191 395.619Z" fill="black" fill-opacity="0.4588"/>
<path d="M332.941 267.529L359.322 212.489H372.927L386.806 270.53L332.941 267.529Z" fill="white"/>
<path d="M340.049 352.071L310.913 332.726C309.198 331.582 308.659 329.476 309.654 327.768C310.731 325.927 313.213 325.181 315.284 326.077L336.892 335.446L311.561 318.689C309.992 317.652 309.472 315.729 310.338 314.145C311.333 312.329 313.769 311.599 315.759 312.536L340.624 324.244L312.948 304.56C311.041 303.208 310.548 300.779 311.789 298.896C313.185 296.774 316.251 296.135 318.533 297.495L348.399 315.355L328.634 298.109C327.192 296.84 327.183 294.742 328.634 293.474C329.848 292.404 331.737 292.263 333.133 293.15L366.43 314.443C366.43 314.443 379.314 324.219 366.019 342.652C352.724 361.076 337.02 357.593 337.02 357.593L340.049 352.071Z" fill="#F8B498"/>
<path d="M254.22 130.542C284.396 104.183 251.82 93.3792 251.82 93.3792L254.22 130.542Z" fill="black"/>
<path d="M194.05 136.62L175.471 202.92L218.888 204.197L225.896 167.747L194.05 136.62Z" fill="#F8B498"/>
<path d="M225.157 171.818L191.494 156.114C190.5 180.823 221.616 189.977 221.616 189.977L225.157 171.818Z" fill="black"/>
<path d="M182.89 134.041C181.53 169.331 204.105 173.933 204.105 173.933C223.833 182.083 238.99 175.748 247.987 162.44C255.059 151.984 256.72 126.148 257.103 115.576C257.222 112.408 254.101 103.022 252.112 100.419C231.863 73.8853 184.906 81.4307 182.89 134.041Z" fill="#F8B498"/>
<path d="M245.679 140.368C247.23 140.335 248.517 141.454 248.544 142.855C248.581 144.265 247.358 145.434 245.807 145.459C244.255 145.492 242.978 144.381 242.941 142.971C242.905 141.57 244.137 140.401 245.679 140.368Z" fill="black"/>
<path d="M221.388 135.625C222.939 135.592 224.226 136.703 224.262 138.113C224.29 139.514 223.067 140.683 221.516 140.716C219.974 140.749 218.687 139.63 218.65 138.229C218.614 136.819 219.846 135.658 221.388 135.625Z" fill="black"/>
<path d="M231.708 152.888C231.699 152.482 232.046 152.142 232.502 152.134L236.289 152.034L235.577 143.792C235.541 143.386 235.869 143.03 236.316 142.996C236.764 142.938 237.156 143.27 237.192 143.676L237.977 152.689C237.995 152.888 237.922 153.087 237.767 153.237C237.621 153.386 237.411 153.477 237.192 153.485L232.539 153.601C232.53 153.601 232.53 153.601 232.52 153.601C232.073 153.601 231.717 153.286 231.708 152.888Z" fill="black"/>
<path d="M226.708 120.493C218.696 118.843 213.659 120.965 210.465 122.433C208.905 123.146 207.929 124.581 208.403 126.115C208.905 127.707 210.703 128.61 212.482 128.221C217.254 127.176 222.301 127.226 225.741 127.466C228.022 127.624 229.947 125.965 229.893 123.884C229.856 122.209 228.506 120.866 226.708 120.493Z" fill="black"/>
<path d="M244.912 124.241C250.296 124.896 252.714 128.279 254.22 130.543C254.959 131.645 255.114 133.262 254.357 134.572C253.572 135.932 252.203 136.28 251.236 135.426C248.653 133.121 245.56 131.778 243.388 131.057C241.947 130.567 241.28 128.478 241.937 126.538C242.476 124.979 243.708 124.092 244.912 124.241Z" fill="black"/>
<path d="M172.98 110.311C174.896 100.9 180.882 92.4503 190.929 87.2183C203.786 80.5269 220.503 78.9349 235.45 80.5435C247.96 81.8868 258.536 87.5168 261.647 97.7985C266.292 113.13 251.51 117.947 244.064 117.591C240.341 117.417 236.8 116.322 233.588 114.78C222.027 109.241 205.118 106.737 205.118 106.737C202.746 130.857 182.661 142.35 182.661 142.35C182.661 142.35 170.671 121.645 172.98 110.311Z" fill="black"/>
<path d="M180.992 120.36C188.547 119.946 195.035 125.169 195.482 132.035C195.938 138.892 190.19 144.779 182.634 145.194C175.088 145.608 168.6 140.376 168.153 133.519C167.696 126.662 173.445 120.767 180.992 120.36Z" fill="#F8B498"/>
<path d="M186.394 137.831C186.384 134.854 185.463 132.541 183.656 130.973C180.864 128.544 176.794 128.677 176.776 128.668C176.383 128.693 175.945 128.378 175.927 127.972C175.909 127.566 176.256 127.217 176.703 127.201C176.885 127.184 181.466 127.043 184.769 129.904C186.914 131.761 188.009 134.423 188.018 137.831C188.018 138.237 187.653 138.569 187.206 138.569C186.759 138.569 186.394 138.237 186.394 137.831Z" fill="black"/>
<path d="M240.697 200.002C240.697 200.002 229.591 223.815 200.683 222.63C171.775 221.452 160.643 194.703 160.643 194.703C205.237 188.053 240.697 200.002 240.697 200.002Z" fill="#F8B498"/>
<path d="M217.948 159.049C217.72 158.701 217.847 158.245 218.24 158.037C218.623 157.838 219.125 157.955 219.344 158.303C223.551 164.828 234.519 162.275 234.628 162.25C235.039 162.142 235.504 162.382 235.623 162.772C235.742 163.17 235.477 163.576 235.048 163.676C234.829 163.726 232.539 164.265 229.6 164.265C225.713 164.265 220.704 163.328 217.948 159.049Z" fill="black"/>
<path d="M178.464 192.249L201.787 214.736L220.84 194.04L243.206 196.901L229.902 243.035L202.025 225.076L172.688 238.259L156.318 195.184L178.464 192.249Z" fill="white"/>
<path d="M202.025 288.383C201.678 288.383 201.386 288.117 201.386 287.794V226.378C201.386 226.054 201.678 225.797 202.025 225.797C202.381 225.797 202.673 226.054 202.673 226.378V287.794C202.673 288.117 202.381 288.383 202.025 288.383Z" fill="black"/>
<path d="M528.243 302.271C529.056 303.34 530.388 303.788 531.674 304.045C534.503 304.609 537.587 304.427 540.042 302.851C540.599 302.495 541.155 301.997 541.247 301.326C541.338 300.671 540.927 300.024 540.389 299.667C539.85 299.319 539.193 299.203 538.564 299.145C535.927 298.88 533.29 299.319 530.652 299.178C529.776 299.128 528.599 298.573 527.979 299.319C527.34 300.074 527.714 301.583 528.243 302.271Z" fill="#FF3E4D" fill-opacity="0.5569"/>
</g>
<defs>
<clipPath id="clip0_6_1811">
<rect width="698" height="622" fill="white"/>
</clipPath>
</defs>
</svg>
