<svg width="358" height="158" viewBox="0 0 358 158" fill="none" xmlns="http://www.w3.org/2000/svg">
<g clip-path="url(#clip0_3_102)">
<mask id="mask0_3_102" style="mask-type:luminance" maskUnits="userSpaceOnUse" x="20" y="2" width="183" height="124">
<path d="M20.7634 2H202.01V126H20.7634V2Z" fill="white"/>
</mask>
<g mask="url(#mask0_3_102)">
<mask id="mask1_3_102" style="mask-type:luminance" maskUnits="userSpaceOnUse" x="11" y="0" width="196" height="166">
<path d="M11.9056 3.75525L203.375 0.255249L206.289 162.229L14.8203 165.729L11.9056 3.75525Z" fill="white"/>
</mask>
<g mask="url(#mask1_3_102)">
<mask id="mask2_3_102" style="mask-type:luminance" maskUnits="userSpaceOnUse" x="11" y="0" width="196" height="166">
<path d="M11.9056 3.75525L203.375 0.255249L206.289 162.229L14.8203 165.729L11.9056 3.75525Z" fill="white"/>
</mask>
<g mask="url(#mask2_3_102)">
<mask id="mask3_3_102" style="mask-type:luminance" maskUnits="userSpaceOnUse" x="11" y="0" width="196" height="166">
<path d="M11.9056 3.75525L203.375 0.255249L206.289 162.229L14.8203 165.729L11.9056 3.75525Z" fill="white"/>
</mask>
<g mask="url(#mask3_3_102)">
<path d="M192.548 87.7605C173.654 98.6042 154.761 109.453 135.862 120.297C133.557 121.62 129.836 124.792 127.299 124.719C123.676 124.615 117.159 119.292 114.059 117.625C95.5215 107.641 77.0361 97.5417 58.7419 87.1198C49.9669 82.125 41.2074 77.0938 32.6598 71.7188C28.2774 68.9636 21.952 66.3073 20.8564 61.0625C19.9158 39.8021 27.0216 37.9792 37.6881 32.1355C53.9565 23.2188 67.6565 14.1823 84.4158 6.23963C88.2452 4.42192 90.0436 2.31775 93.6921 3.61984C99.4646 5.68234 107.79 10.1667 113.082 13.2448C141.934 30.0365 171.846 46.3334 200.698 63.125C201.669 67.6928 196.563 67.1407 195.106 70.0313C194.806 70.625 194.93 76.5573 195.349 77.1407C196.377 78.5782 199.271 78.0573 200.672 79.2917C204.77 82.9167 196.191 85.6719 192.548 87.7605Z" fill="#FABE57"/>
</g>
</g>
</g>
</g>
<mask id="mask4_3_102" style="mask-type:luminance" maskUnits="userSpaceOnUse" x="14" y="71" width="183" height="93">
<path d="M14.1486 71.3334H196.719V163.333H14.1486V71.3334Z" fill="white"/>
</mask>
<g mask="url(#mask4_3_102)">
<mask id="mask5_3_102" style="mask-type:luminance" maskUnits="userSpaceOnUse" x="11" y="0" width="196" height="166">
<path d="M11.9057 3.75525L203.375 0.255249L206.289 162.229L14.8204 165.729L11.9057 3.75525Z" fill="white"/>
</mask>
<g mask="url(#mask5_3_102)">
<mask id="mask6_3_102" style="mask-type:luminance" maskUnits="userSpaceOnUse" x="11" y="0" width="196" height="166">
<path d="M11.9057 3.75525L203.375 0.255249L206.289 162.229L14.8204 165.729L11.9057 3.75525Z" fill="white"/>
</mask>
<g mask="url(#mask6_3_102)">
<mask id="mask7_3_102" style="mask-type:luminance" maskUnits="userSpaceOnUse" x="11" y="0" width="196" height="166">
<path d="M11.9057 3.75525L203.375 0.255249L206.289 162.229L14.8204 165.729L11.9057 3.75525Z" fill="white"/>
</mask>
<g mask="url(#mask7_3_102)">
<path d="M175.784 88.198C175.546 88.2032 175.303 88.2657 175.096 88.3855C173.913 89.0521 172.745 89.7344 171.577 90.4167C170.993 90.7605 170.404 91.099 169.809 91.4427L164.574 94.5573C161.417 96.4584 158.011 98.5313 154.166 100.891C152.952 101.646 151.732 102.406 150.518 103.161C148.322 104.521 146.053 105.927 143.836 107.339L138.694 110.609C138.12 110.984 137.541 111.359 136.968 111.729C135.836 112.458 134.704 113.193 133.578 113.938C132.994 114.333 132.797 115.13 133.144 115.75C133.386 116.198 133.852 116.464 134.358 116.458C134.58 116.453 134.797 116.391 134.994 116.281C136.167 115.625 137.335 114.948 138.497 114.271C139.092 113.927 139.681 113.589 140.286 113.24L145.526 110.151C147.784 108.823 150.068 107.443 152.27 106.109C153.5 105.365 154.73 104.62 155.97 103.88C159.836 101.516 163.226 99.4219 166.342 97.4844L171.499 94.2344C172.052 93.875 172.61 93.5157 173.169 93.1563C174.3 92.4271 175.473 91.6771 176.621 90.9167C177.256 90.4948 177.468 89.6302 177.096 88.9584C176.827 88.4792 176.326 88.1875 175.784 88.198ZM163.329 93.5886C163.479 93.5886 163.629 93.5573 163.773 93.5105C164.316 93.3282 164.879 93.0834 165.536 92.7396C166.052 92.474 166.574 92.1667 167.148 91.8073C167.572 91.5365 168.125 91.1667 168.667 90.7605C169.081 90.4532 169.618 90.0313 170.14 89.5209C170.517 89.1511 170.647 88.6094 170.486 88.1094C170.306 87.5313 169.758 87.1355 169.158 87.1459C169.024 87.1459 168.89 87.1719 168.76 87.2136C168.078 87.4323 167.458 87.7136 166.993 87.9375C166.378 88.2292 165.799 88.5521 165.355 88.8021C164.776 89.1407 164.264 89.4636 163.789 89.7969C163.179 90.224 162.699 90.6042 162.28 91.0052C161.866 91.4063 161.711 92.0209 161.897 92.5677C162.104 93.1875 162.678 93.599 163.329 93.5886ZM196.517 73.1094C196.284 72.625 195.793 72.3177 195.261 72.3282C195.065 72.3334 194.879 72.375 194.698 72.4636L194.574 72.5261C193.928 72.8386 193.287 73.1667 192.646 73.4948C192.315 73.6615 191.985 73.8334 191.638 74.0105L188.631 75.5938C186.569 76.6823 184.486 77.8438 182.652 78.8698C179.37 80.7136 175.076 83.1719 170.915 85.8438C170.285 86.2552 170.058 87.073 170.388 87.75C170.642 88.2605 171.169 88.5886 171.737 88.5782C171.954 88.573 172.161 88.5209 172.357 88.4219C176.781 86.224 181.091 83.7917 184.357 81.9219C186.171 80.8698 188.228 79.6823 190.228 78.4636L193.147 76.6875L194.016 76.1355C194.501 75.8334 194.982 75.5261 195.458 75.2188L195.664 75.0886C195.788 75.0105 195.907 74.9323 196.031 74.8542C196.6 74.4792 196.806 73.7292 196.517 73.1094ZM186.708 124.896C167.985 136.042 149.262 147.182 130.539 158.328C128.255 159.688 124.586 162.922 122.043 162.891C118.42 162.844 111.821 157.625 108.694 156.005C90.0023 146.318 71.367 136.516 52.9023 126.385C44.0601 121.531 35.2179 116.641 26.5876 111.406C22.1587 108.719 16.8048 106.828 15.6266 101.599C13.4199 84.5313 18.0968 80.2084 32.4376 71.5834C32.5099 71.625 32.5874 71.6719 32.6598 71.7188C41.2074 77.0938 49.9669 82.125 58.742 87.1198C77.0362 97.5417 95.5216 107.641 114.059 117.625C117.159 119.292 123.676 124.615 127.299 124.719C129.836 124.792 133.557 121.62 135.862 120.297C151.443 111.354 167.019 102.411 182.595 93.474C186.553 95.6927 190.512 97.9115 194.47 100.135C195.514 104.682 190.398 104.214 188.987 107.13C188.698 107.724 188.915 113.656 189.339 114.234C190.393 115.651 193.277 115.089 194.693 116.297C198.853 119.859 190.316 122.75 186.708 124.896Z" fill="white"/>
</g>
</g>
</g>
</g>
<mask id="mask8_3_102" style="mask-type:luminance" maskUnits="userSpaceOnUse" x="123" y="103" width="70" height="55">
<path d="M123.955 103.333H192.75V158H123.955V103.333Z" fill="white"/>
</mask>
<g mask="url(#mask8_3_102)">
<mask id="mask9_3_102" style="mask-type:luminance" maskUnits="userSpaceOnUse" x="11" y="0" width="196" height="166">
<path d="M11.9056 3.75525L203.375 0.255249L206.289 162.229L14.8203 165.729L11.9056 3.75525Z" fill="white"/>
</mask>
<g mask="url(#mask9_3_102)">
<mask id="mask10_3_102" style="mask-type:luminance" maskUnits="userSpaceOnUse" x="11" y="0" width="196" height="166">
<path d="M11.9056 3.75525L203.375 0.255249L206.289 162.229L14.8203 165.729L11.9056 3.75525Z" fill="white"/>
</mask>
<g mask="url(#mask10_3_102)">
<mask id="mask11_3_102" style="mask-type:luminance" maskUnits="userSpaceOnUse" x="11" y="0" width="196" height="166">
<path d="M11.9056 3.75525L203.375 0.255249L206.289 162.229L14.8203 165.729L11.9056 3.75525Z" fill="white"/>
</mask>
<g mask="url(#mask11_3_102)">
<path d="M190.409 107.083L190.553 116.797C190.564 117.307 190.305 117.786 189.871 118.057L127.237 157.057C126.374 157.599 125.252 157.094 125.071 156.089C124.539 153.115 123.717 147.677 124.203 144.766C124.823 141.068 177.117 112.229 188.264 106.12C189.21 105.599 193.535 102.089 190.409 107.083Z" fill="#F57669"/>
</g>
</g>
</g>
</g>
<mask id="mask12_3_102" style="mask-type:luminance" maskUnits="userSpaceOnUse" x="12" y="2" width="192" height="163">
<path d="M12.8256 2H203.333V164.667H12.8256V2Z" fill="white"/>
</mask>
<g mask="url(#mask12_3_102)">
<mask id="mask13_3_102" style="mask-type:luminance" maskUnits="userSpaceOnUse" x="11" y="0" width="196" height="166">
<path d="M11.9057 3.75525L203.375 0.255249L206.289 162.229L14.8204 165.729L11.9057 3.75525Z" fill="white"/>
</mask>
<g mask="url(#mask13_3_102)">
<mask id="mask14_3_102" style="mask-type:luminance" maskUnits="userSpaceOnUse" x="11" y="0" width="196" height="166">
<path d="M11.9057 3.75525L203.375 0.255249L206.289 162.229L14.8204 165.729L11.9057 3.75525Z" fill="white"/>
</mask>
<g mask="url(#mask14_3_102)">
<mask id="mask15_3_102" style="mask-type:luminance" maskUnits="userSpaceOnUse" x="11" y="0" width="196" height="166">
<path d="M11.9057 3.75525L203.375 0.255249L206.289 162.229L14.8204 165.729L11.9057 3.75525Z" fill="white"/>
</mask>
<g mask="url(#mask15_3_102)">
<path d="M102.405 135.063C100.994 134.354 99.3303 135.359 99.2734 136.948L98.9427 146.422C98.9169 147.203 99.3044 147.943 99.9659 148.354L101.465 149.297C102.932 150.219 104.829 149.125 104.777 147.38L104.803 138.745C104.777 137.932 104.023 135.875 103.304 135.516L102.405 135.063ZM49.1918 61.2501C47.9463 60.2917 46.5717 59.4636 45.2125 58.6303C44.4115 58.1459 43.3831 58.6876 43.3211 59.6251L42.5407 71.4948C42.4167 73.3386 42.055 73.6771 43.2436 74.724C44.3702 75.7136 45.936 76.448 47.414 77.1667C48.246 77.5678 49.2176 77.0001 49.2796 76.0678L50.0806 64.4532C50.2098 62.5573 50.5819 62.3178 49.1918 61.2501ZM146.12 92.2709C150.471 90.1146 154.792 87.9011 159.076 85.6251C163.37 83.3594 167.639 81.0521 171.897 78.7136C180.404 74.0365 188.874 69.2917 197.215 64.3021C197.54 64.1094 197.669 63.6876 197.504 63.3386C197.323 62.9688 196.884 62.8178 196.522 63.0001H196.512C187.799 67.2865 179.215 71.8126 170.667 76.4063C166.394 78.7084 162.14 81.0365 157.903 83.4063C153.665 85.7657 149.453 88.1928 145.278 90.6719L145.267 90.6771C144.864 90.9167 144.709 91.4271 144.921 91.8542C145.138 92.3073 145.676 92.4896 146.12 92.2709ZM134.461 98.5209C136.875 97.2813 139.236 95.948 141.546 94.5313C141.862 94.3386 141.991 93.9376 141.841 93.5938C141.671 93.2188 141.236 93.0521 140.864 93.2188L133.526 96.5313C132.306 97.073 131.071 97.5834 129.846 98.0886C129.237 98.3438 128.627 98.5886 128.027 98.8021C127.728 98.9063 127.428 99.0105 127.18 99.0678C127.149 99.0782 127.128 99.0834 127.102 99.0886H127.092L126.947 99.0678L126.756 99.0313C126.219 98.9115 125.604 98.698 125.004 98.474C124.4 98.2448 123.795 97.9948 123.19 97.7344C121.976 97.2084 120.767 96.6511 119.568 96.0678C117.159 94.9063 114.772 93.6823 112.395 92.4323C102.891 87.4219 93.4854 82.1563 84.1523 76.7865C74.8347 71.3751 65.4705 66.0157 56.1219 60.6407L49.1091 56.6146L42.0808 52.6094L28.0191 44.6198C27.5953 44.3803 27.0527 44.5261 26.8046 44.948C26.5514 45.3803 26.6961 45.9376 27.125 46.1928L41.0317 54.4532L47.9928 58.573L54.9643 62.6719C64.2664 68.1303 73.5479 73.6094 82.8862 79.0209C87.5579 81.724 92.2452 84.3959 96.9582 87.0313C101.676 89.6563 106.405 92.2709 111.211 94.7501C113.609 95.9948 116.022 97.2188 118.477 98.3855C119.707 98.9688 120.942 99.5365 122.208 100.078C122.839 100.344 123.48 100.604 124.136 100.849C124.715 101.057 125.294 101.26 125.95 101.422C125.547 102.802 125.232 104.188 124.963 105.599C124.622 107.427 124.374 109.276 124.25 111.151C124.136 113.021 124.089 114.906 124.291 116.802C124.482 118.688 124.839 120.599 125.604 122.401C125.764 122.787 126.177 123.016 126.596 122.938C127.087 122.844 127.407 122.365 127.314 121.875L127.309 121.839C126.989 120.135 126.844 118.396 126.777 116.635C126.772 116.193 126.756 115.75 126.741 115.313L126.756 113.979C126.761 113.089 126.803 112.198 126.844 111.302C126.916 109.516 127.076 107.719 127.232 105.922L127.671 101.531C127.717 101.516 127.764 101.505 127.8 101.495C128.203 101.38 128.539 101.255 128.87 101.13C129.536 100.87 130.167 100.599 130.792 100.323C132.043 99.7605 133.252 99.1355 134.461 98.5209ZM191.349 87.4428C193.101 86.4844 194.961 85.7032 196.687 84.7084C202.848 81.1667 200.222 81.0209 197.359 79.6771V79.7084C197.359 80.2188 197.096 80.6928 196.656 80.9584L132.549 118.974C131.681 119.495 130.565 118.974 130.399 117.969C129.919 114.984 130.048 109.521 130.58 106.62C131.252 102.974 182.729 75.599 194.812 69.2188C194.884 69.073 194.961 68.9323 195.039 68.8126C196.207 67.0209 200.693 66.3542 199.783 63.6042C199.395 62.4323 194.269 60.4011 193.256 59.8073C188.383 56.974 180.414 53.3021 175.546 50.4636C154.414 38.1719 134.709 27.3751 113.671 14.9323C107.754 11.4271 99.4595 5.4688 92.5862 4.39589C88.3538 3.73443 86.0541 6.6563 82.3074 8.53651C75.8682 11.7709 41.1196 29.849 30.2774 37.2605C22.1949 42.7813 21.3164 51.6511 21.7246 60.948C22.753 65.6459 28.2154 68.0053 31.8588 70.224C37.4194 73.6198 42.9748 77.0157 48.6078 80.2917C58.5197 86.0574 68.5144 91.6823 78.54 97.2448C89.9868 103.599 101.63 109.615 113.02 116.068C116.782 118.203 120.674 121.885 124.823 123.109C129.226 124.406 131.883 121.698 135.557 119.464C153.82 108.339 172.59 97.6928 191.349 87.4428ZM183.923 81.1615C185.882 80.0261 187.84 78.8907 189.778 77.7084L192.682 75.9428C193.452 75.4532 194.228 74.9688 194.992 74.4792C195.178 74.3594 195.37 74.2396 195.556 74.1146C195.757 73.9844 195.835 73.7136 195.731 73.4896C195.613 73.2396 195.318 73.1355 195.075 73.2553C195.034 73.2761 194.992 73.2969 194.951 73.3178C193.974 73.7917 193.008 74.2969 192.042 74.7865L189.034 76.3751C187.029 77.4324 185.049 78.5313 183.075 79.6355C179.122 81.8542 175.205 84.1303 171.386 86.5834C171.132 86.7449 171.034 87.0834 171.169 87.3594C171.318 87.6615 171.675 87.7813 171.975 87.6355C176.032 85.6146 179.99 83.4115 183.923 81.1615ZM162.719 92.2865C162.828 92.6146 163.174 92.7865 163.5 92.6771C164.073 92.4844 164.611 92.2292 165.138 91.9584C165.67 91.6823 166.176 91.3855 166.678 91.0678C167.179 90.7448 167.675 90.4115 168.151 90.0521C168.626 89.698 169.096 89.323 169.53 88.8959C169.665 88.7657 169.716 88.5678 169.66 88.3751C169.577 88.1094 169.293 87.9636 169.029 88.0469C168.445 88.2344 167.903 88.474 167.365 88.7344C166.828 88.9896 166.306 89.2709 165.789 89.5678C165.277 89.8646 164.771 90.1771 164.285 90.5209C163.799 90.8594 163.324 91.224 162.879 91.6407C162.714 91.8021 162.642 92.0521 162.719 92.2865ZM154.621 101.635C151.185 103.787 147.722 105.901 144.301 108.083L139.164 111.349C137.464 112.458 135.753 113.547 134.058 114.672C133.852 114.813 133.779 115.099 133.903 115.323C134.032 115.563 134.332 115.651 134.57 115.516C136.337 114.521 138.084 113.49 139.846 112.484L145.086 109.391C148.585 107.333 152.042 105.214 155.52 103.125C158.983 101.01 162.435 98.8855 165.882 96.7396L171.029 93.4948C172.734 92.3907 174.45 91.3073 176.14 90.1876C176.398 90.0105 176.486 89.6667 176.336 89.3855C176.171 89.0938 175.809 88.9896 175.52 89.1511C173.753 90.1511 172.006 91.1876 170.254 92.2032L165.024 95.3126C161.546 97.4063 158.084 99.5157 154.621 101.635ZM192.858 88.599C189.964 90.1563 187.091 91.7553 184.233 93.3855C185.323 94.0001 186.419 94.6094 187.509 95.224C189.354 96.2605 193.256 97.5313 194.626 99.2136C196.46 101.479 194.894 103.193 193.251 104.901C192.305 105.885 191.122 106.141 190.341 107.047C190.166 106.323 189.473 105.859 188.765 105.953C190.114 104.182 194.688 103.182 193.427 100.552C192.739 99.1251 187.644 97.3126 186.341 96.5782C185.044 95.8542 183.752 95.1251 182.455 94.4011C175.272 98.5209 168.151 102.776 160.983 106.891C154.688 110.5 148.394 114.115 142.099 117.724C138.141 119.995 131.614 125.521 127.459 125.599C123.335 125.672 119.428 121.995 116.115 119.943C110.389 116.391 104.328 113.37 98.4156 110.156C87.806 104.385 77.2222 98.5573 66.6953 92.6355C55.9668 86.5938 45.2642 80.4949 34.7579 74.0626C33.8122 73.4844 32.9079 72.948 32.0397 72.4428C29.1405 74.3334 26.3343 76.3178 23.6936 78.4636C16.2157 84.5313 15.2958 92.2292 16.4844 101.443C17.611 106.344 64.9847 131.063 75.3824 136.599C86.4778 142.505 98.6843 149.307 109.609 155.521C113.046 157.469 117.893 162.266 122.053 162.01C125.144 161.823 127.872 158.979 130.405 157.385C132.864 155.839 135.335 154.307 137.81 152.776C137.304 152.156 136.983 151.62 136.978 151.24C136.973 151.172 136.963 151.094 136.942 151.016C136.482 149 130.73 145.162 130.73 145.162L145.138 136C145.138 136 150.068 138.38 151.138 142.177C151.19 142.354 151.231 142.537 151.267 142.724C151.355 143.25 151.541 143.771 151.784 144.271C163.003 137.537 174.326 130.958 185.649 124.505C187.468 123.474 189.396 122.625 191.189 121.557C193.023 120.458 195.995 119.318 194.135 116.969C193.365 116 191.861 116.099 190.533 115.823L190.507 114.167C192.243 115.484 195.256 114.089 196.403 117.042C197.225 119.156 195.685 120.516 194.233 121.755C192.76 123.021 169.877 137.073 153.712 146.927C155.665 148.964 158.053 150.344 158.053 150.344L148.378 152.708L145.169 159.219C145.169 159.219 142.472 157.219 140.167 155.151C139.412 155.604 138.813 155.964 138.415 156.203C134.622 158.458 126.11 163.693 122.152 163.766C117.216 163.859 95.7283 150.255 89.4752 146.974C79.1291 141.542 68.8141 136.052 58.5456 130.469C47.2125 124.302 36.0706 117.849 24.8822 111.427C20.7066 109.026 16.1123 106.885 14.779 101.792C13.854 98.2501 13.9625 93.6355 14.5258 90.0261C15.7713 82.0678 21.6316 77.4167 27.9932 73.3073C28.8718 72.7396 29.7503 72.1824 30.634 71.6251C22.4068 66.8594 18.5722 64.6407 20.5619 52.5938C20.8306 50.9896 21.213 49.4115 21.7039 47.8751C22.6497 44.9376 24.0036 42.1771 25.7917 39.7917C27.4764 37.5365 29.5436 35.6146 31.9983 34.198C42.6803 28.0417 53.5431 22.1407 64.2974 16.1146C70.1681 12.823 76.0698 9.5886 82.0697 6.54693C85.4908 4.80735 89.1186 2.5313 93.1134 2.50526C100.462 2.45318 110.596 10.323 116.637 13.9323C137.516 26.4219 157.448 36.9428 178.471 49.1771C183.36 52.0209 188.248 54.8698 193.142 57.7136C194.874 58.724 199.68 60.4376 200.837 62.1928C203.194 65.7761 199.525 67.3074 197.194 69.6511C197.282 69.8386 197.339 70.0469 197.339 70.2761L197.354 76.6615C199.426 77.9896 202.703 78.3803 202.6 81.5834C202.491 85.0938 195.246 87.3073 192.858 88.599ZM152.931 130.656C152.239 130.922 151.582 131.24 150.931 131.573C150.28 131.906 149.65 132.266 149.024 132.641C148.399 133.01 147.789 133.401 147.19 133.823C146.59 134.234 146.006 134.677 145.459 135.172C145.273 135.339 145.2 135.609 145.298 135.854C145.422 136.167 145.774 136.323 146.084 136.198C146.771 135.927 147.422 135.599 148.058 135.245C148.699 134.896 149.319 134.521 149.934 134.125C150.544 133.729 151.148 133.323 151.732 132.885C152.321 132.453 152.9 132 153.443 131.5C153.588 131.365 153.65 131.146 153.572 130.948C153.474 130.688 153.19 130.557 152.931 130.656ZM167.97 123.849C171.809 121.797 175.535 119.573 179.236 117.297C181.081 116.151 182.925 115.005 184.745 113.813L187.473 112.026C188.372 111.412 189.282 110.818 190.166 110.188C190.367 110.047 190.434 109.776 190.326 109.557C190.197 109.313 189.902 109.219 189.664 109.344C188.698 109.839 187.752 110.375 186.796 110.891L183.959 112.5C182.068 113.573 180.202 114.682 178.342 115.797C174.621 118.042 170.936 120.339 167.35 122.813C167.107 122.984 167.019 123.318 167.158 123.594C167.319 123.891 167.68 124.005 167.97 123.849ZM120.813 143.646C120.818 143.328 120.617 143.031 120.296 142.927C119.909 142.807 119.495 143.021 119.371 143.417C118.922 144.839 118.674 146.255 118.513 147.703C118.353 149.146 118.317 150.604 118.369 152.068C118.384 152.797 118.467 153.521 118.539 154.25C118.575 154.615 118.648 154.974 118.705 155.339C118.761 155.703 118.813 156.063 118.906 156.422C119.196 157.859 119.686 159.271 120.312 160.599C120.477 160.953 120.865 161.172 121.273 161.104C121.764 161.026 122.1 160.557 122.017 160.057L122.007 160.01C121.79 158.651 121.521 157.333 121.361 155.984C121.19 154.641 121.04 153.287 120.963 151.927C120.87 150.568 120.823 149.198 120.803 147.823C120.782 146.448 120.798 145.047 120.813 143.688V143.646ZM176.864 109.844C181.608 107.073 186.362 104.318 191.086 101.51C191.499 101.26 191.649 100.729 191.421 100.297C191.189 99.8594 190.641 99.6928 190.207 99.9323C185.38 102.552 180.579 105.224 175.763 107.865L161.355 115.875L132.585 131.932C130.188 133.266 127.784 134.599 125.381 135.885C124.782 136.203 124.172 136.531 123.588 136.818C123.278 136.974 123.025 137.094 122.823 137.167C122.637 137.234 122.384 137.271 122.115 137.287C121.015 137.339 119.702 137.073 118.451 136.74C115.909 136.047 113.387 135.037 110.901 133.958C108.415 132.875 105.945 131.714 103.501 130.495C98.6119 128.057 93.8058 125.427 89.0308 122.734C84.2505 120.052 79.5167 117.26 74.8243 114.432L74.8192 114.427C74.4781 114.224 74.0388 114.323 73.8218 114.662C73.6047 115.005 73.7029 115.464 74.044 115.688C83.2738 121.708 92.6948 127.412 102.478 132.537C104.932 133.807 107.402 135.047 109.94 136.177C112.482 137.302 115.056 138.365 117.811 139.135C118.498 139.328 119.201 139.5 119.935 139.62C120.663 139.745 121.418 139.833 122.25 139.797C122.663 139.771 123.097 139.724 123.562 139.578C124.007 139.427 124.374 139.245 124.679 139.094C125.33 138.781 125.929 138.458 126.549 138.141C128.994 136.854 131.407 135.542 133.826 134.224C138.652 131.589 143.433 128.88 148.223 126.188C153.009 123.484 157.805 120.802 162.574 118.068L176.864 109.844ZM71.8115 112.568C72.2301 112.833 72.3541 113.396 72.0905 113.818C71.8373 114.219 71.3205 114.354 70.9071 114.135C66.6488 111.854 62.4266 109.516 58.2355 107.12C54.0392 104.729 49.8688 102.302 45.7086 99.849C37.4039 94.9271 29.1302 89.9428 20.996 84.7188C20.6549 84.4949 20.5515 84.0365 20.7686 83.6928C20.9753 83.3646 21.399 83.2553 21.735 83.4324C30.2619 87.9688 38.6597 92.7448 47.0109 97.5782C51.1866 100.005 55.3467 102.453 59.4861 104.948C63.6256 107.427 67.734 109.969 71.8115 112.568Z" fill="#17292F"/>
</g>
</g>
</g>
</g>
<path d="M243.488 63.0833V100.833H231.726V86.1041H220.564V100.833H208.822V63.0833H220.564V76.6666H231.726V63.0833H243.488Z" fill="white"/>
<path d="M277.671 85.5208C277.671 86.3437 277.614 87.125 277.505 87.875H258.612C258.788 90.474 259.862 91.7708 261.837 91.7708C263.103 91.7708 264.017 91.1823 264.586 90H277.03C276.601 92.1406 275.707 94.0573 274.343 95.75C272.989 97.4323 271.283 98.7656 269.216 99.75C267.159 100.724 264.896 101.208 262.415 101.208C259.449 101.208 256.813 100.594 254.498 99.3542C252.193 98.1042 250.395 96.3125 249.103 93.9792C247.821 91.6458 247.181 88.9167 247.181 85.7917C247.181 82.6667 247.821 79.9375 249.103 77.6042C250.395 75.2708 252.193 73.4896 254.498 72.25C256.813 71 259.449 70.375 262.415 70.375C265.392 70.375 268.028 70.9948 270.332 72.2292C272.648 73.4531 274.446 75.2031 275.728 77.4792C277.02 79.7604 277.671 82.4375 277.671 85.5208ZM265.764 82.7083C265.764 81.7083 265.444 80.9531 264.813 80.4375C264.178 79.9271 263.377 79.6667 262.415 79.6667C260.333 79.6667 259.118 80.6823 258.777 82.7083H265.764Z" fill="white"/>
<path d="M293.108 61.375V100.833H281.367V61.375H293.108Z" fill="white"/>
<path d="M310.146 74.8542C310.891 73.4687 311.955 72.375 313.351 71.5833C314.741 70.7813 316.41 70.375 318.353 70.375C320.679 70.375 322.777 70.9948 324.637 72.2292C326.508 73.4531 327.986 75.2292 329.061 77.5625C330.146 79.8854 330.694 82.625 330.694 85.7917C330.694 88.9583 330.146 91.7083 329.061 94.0417C327.986 96.3646 326.508 98.1406 324.637 99.375C322.777 100.599 320.679 101.208 318.353 101.208C316.41 101.208 314.741 100.813 313.351 100.021C311.955 99.2188 310.891 98.1198 310.146 96.7292V115.229H298.405V70.75H310.146V74.8542ZM318.787 85.7917C318.787 84.1979 318.379 82.9531 317.568 82.0625C316.751 81.1771 315.712 80.7292 314.446 80.7292C313.175 80.7292 312.136 81.1771 311.325 82.0625C310.508 82.9531 310.105 84.1979 310.105 85.7917C310.105 87.3906 310.508 88.6354 311.325 89.5208C312.136 90.4115 313.175 90.8542 314.446 90.8542C315.712 90.8542 316.751 90.4115 317.568 89.5208C318.379 88.6354 318.787 87.3906 318.787 85.7917Z" fill="white"/>
</g>
<defs>
<clipPath id="clip0_3_102">
<rect width="358" height="158" fill="white"/>
</clipPath>
</defs>
</svg>
